<svg aria-hidden="true" style="position: absolute; width: 0; height: 0; overflow: hidden;" version="1.1" xmlns="http://www.w3.org/2000/svg" xmlns:xlink="http://www.w3.org/1999/xlink">
<defs>
<symbol id="icon-terminal" viewBox="0 0 26 28">
<title>terminal</title>
<path d="M9.141 15.359l-7.281 7.281c-0.203 0.203-0.516 0.203-0.719 0l-0.781-0.781c-0.203-0.203-0.203-0.516 0-0.719l6.141-6.141-6.141-6.141c-0.203-0.203-0.203-0.516 0-0.719l0.781-0.781c0.203-0.203 0.516-0.203 0.719 0l7.281 7.281c0.203 0.203 0.203 0.516 0 0.719zM26 22.5v1c0 0.281-0.219 0.5-0.5 0.5h-15c-0.281 0-0.5-0.219-0.5-0.5v-1c0-0.281 0.219-0.5 0.5-0.5h15c0.281 0 0.5 0.219 0.5 0.5z"></path>
</symbol>
<symbol id="icon-linux" viewBox="0 0 25 28">
<title>linux</title>
<path d="M10.359 6.422v0c-0.313 0.031-0.203 0.313-0.375 0.313-0.156 0.016-0.125-0.344 0.375-0.313zM11.719 6.641c-0.156 0.047-0.172-0.25-0.453-0.172v0c0.453-0.203 0.609 0.109 0.453 0.172zM6.234 13.312c-0.141-0.047-0.109 0.234-0.25 0.453-0.109 0.203-0.391 0.359-0.172 0.391v0c0.078 0.016 0.297-0.172 0.391-0.391 0.078-0.266 0.156-0.406 0.031-0.453zM19.594 18.922c0-0.281-0.609-0.547-0.859-0.656 0.422-1.406 0.234-1.969-0.047-3.297-0.219-1-1.141-2.359-1.859-2.781 0.187 0.156 0.531 0.609 0.891 1.297 0.625 1.172 1.25 2.906 0.844 4.344-0.156 0.562-0.531 0.641-0.781 0.656-1.094 0.125-0.453-1.313-0.906-3.266-0.516-2.188-1.047-2.344-1.172-2.516-0.641-2.844-1.344-2.562-1.547-3.625-0.172-0.953 0.828-1.734-0.531-2-0.422-0.078-1.016-0.5-1.25-0.531s-0.359-1.578 0.516-1.625c0.859-0.063 1.016 0.969 0.859 1.375-0.25 0.406 0.016 0.562 0.438 0.422 0.344-0.109 0.125-1.016 0.203-1.141-0.219-1.313-0.766-1.5-1.328-1.609-2.156 0.172-1.188 2.547-1.406 2.328-0.313-0.328-1.219-0.031-1.219-0.234 0.016-1.219-0.391-1.922-0.953-1.937-0.625-0.016-0.875 0.859-0.906 1.359-0.047 0.469 0.266 1.453 0.5 1.375 0.156-0.047 0.422-0.359 0.141-0.344-0.141 0-0.359-0.344-0.391-0.75-0.016-0.406 0.141-0.812 0.672-0.797 0.609 0.016 0.609 1.234 0.547 1.281-0.203 0.141-0.453 0.406-0.484 0.453-0.203 0.328-0.594 0.422-0.75 0.562-0.266 0.281-0.328 0.594-0.125 0.703 0.719 0.406 0.484 0.875 1.484 0.906 0.656 0.031 1.141-0.094 1.594-0.234 0.344-0.109 1.453-0.344 1.687-0.75 0.109-0.172 0.234-0.172 0.313-0.125 0.156 0.078 0.187 0.375-0.203 0.469-0.547 0.156-1.094 0.453-1.594 0.641-0.484 0.203-0.641 0.281-1.094 0.359-1.031 0.187-1.797-0.375-1.109 0.297 0.234 0.219 0.453 0.359 1.047 0.344 1.313-0.047 2.766-1.625 2.906-0.922 0.031 0.156-0.406 0.344-0.75 0.516-1.219 0.594-2.078 1.781-2.859 1.375-0.703-0.375-1.406-2.109-1.391-1.328 0.016 1.203-1.578 2.266-0.844 3.641-0.484 0.125-1.563 2.422-1.719 3.609-0.094 0.688 0.063 1.531-0.109 2-0.234 0.688-1.297-0.656-0.953-2.297 0.063-0.281 0-0.344-0.078-0.203-0.422 0.766-0.187 1.844 0.156 2.594 0.141 0.328 0.5 0.469 0.766 0.75 0.547 0.625 2.703 2.219 3.078 2.609 0.484 0.453 0.344 1.516-0.656 1.625v0c0.516 0.969 1.016 1.062 1 2.641 0.594-0.313 0.359-1 0.109-1.437-0.172-0.313-0.391-0.453-0.344-0.531 0.031-0.047 0.344-0.313 0.516-0.109 0.531 0.594 1.531 0.703 2.594 0.562 1.078-0.125 2.234-0.5 2.766-1.359 0.25-0.406 0.422-0.547 0.531-0.469 0.125 0.063 0.172 0.344 0.156 0.812-0.016 0.5-0.219 1.016-0.359 1.437-0.141 0.484-0.187 0.812 0.281 0.828 0.125-0.875 0.375-1.734 0.438-2.609 0.078-1-0.641-2.844 0.141-3.766 0.203-0.25 0.453-0.281 0.797-0.281 0.047-1.25 1.969-1.156 2.609-0.641zM9.781 6c0.063-0.391-0.125-0.672-0.219-0.703-0.187-0.047-0.156 0.234-0.063 0.203v0c0.063 0 0.141 0.094 0.109 0.234-0.031 0.187-0.016 0.313 0.125 0.313 0.016 0 0.047 0 0.047-0.047zM16.328 9.078c-0.063-0.297-0.281-0.187-0.531-0.344-0.297-0.187-0.359-0.5-0.469-0.391v0c-0.328 0.359 0.406 1.109 0.719 1.172 0.187 0.031 0.328-0.219 0.281-0.438zM13.547 5.75c0.016-0.375-0.313-0.562-0.391-0.547-0.203 0.016-0.141 0.109-0.047 0.141v0c0.125 0.031 0.25 0.25 0.281 0.484 0 0.031 0.156-0.031 0.156-0.078zM14.391 2.109c0.016-0.078-0.187-0.172-0.328-0.281-0.125-0.125-0.25-0.234-0.375-0.234-0.313 0.031-0.156 0.359-0.203 0.516v0c-0.063 0.172-0.297 0.313-0.141 0.438 0.141 0.109 0.234-0.172 0.531-0.281 0.078-0.031 0.438 0.016 0.516-0.156zM23.219 23.063c1.922 1.188-0.719 2.172-1.859 2.75-0.891 0.453-2.078 1.453-2.516 1.875-0.328 0.313-1.687 0.469-2.453 0.078-0.891-0.453-0.422-1.172-1.797-1.219-0.688-0.016-1.359-0.016-2.031-0.016-0.594 0.016-1.188 0.047-1.797 0.063-2.063 0.047-2.266 1.375-3.594 1.328-0.906-0.031-2.047-0.75-4.016-1.156-1.375-0.281-2.703-0.359-2.984-0.969s0.344-1.297 0.391-1.891c0.047-0.797-0.594-1.875-0.125-2.281 0.406-0.359 1.266-0.094 1.828-0.406 0.594-0.344 0.844-0.609 0.844-1.344 0.219 0.75-0.016 1.359-0.5 1.656-0.297 0.187-0.844 0.281-1.297 0.234-0.359-0.031-0.578 0.016-0.672 0.156-0.141 0.172-0.094 0.484 0.078 0.891s0.375 0.672 0.344 1.172c-0.016 0.5-0.578 1.094-0.484 1.516 0.031 0.156 0.187 0.297 0.578 0.406 0.625 0.172 1.766 0.344 2.875 0.609 1.234 0.313 2.516 0.875 3.313 0.766 2.375-0.328 1.016-2.875 0.641-3.484v0c-2.016-3.156-3.344-5.219-4.406-4.406-0.266 0.219-0.281-0.531-0.266-0.828 0.047-1.031 0.562-1.406 0.875-2.203 0.594-1.516 1.047-3.25 1.953-4.141 0.672-0.875 1.734-2.297 1.937-3.047-0.172-1.625-0.219-3.344-0.25-4.844-0.031-1.609 0.219-3.016 2.031-4 0.438-0.234 1.016-0.328 1.625-0.328 1.078-0.016 2.281 0.297 3.047 0.859 1.219 0.906 1.984 2.828 1.891 4.203-0.063 1.078 0.125 2.188 0.469 3.344 0.406 1.359 1.047 2.312 2.078 3.406 1.234 1.313 2.203 3.891 2.484 5.531 0.25 1.531-0.094 2.484-0.422 2.531-0.5 0.078-0.812 1.656-2.375 1.594-1-0.047-1.094-0.641-1.375-1.156-0.453-0.797-0.906-0.547-1.078 0.297-0.094 0.422-0.031 1.047 0.109 1.516 0.281 0.984 0.187 1.906 0.016 3.047-0.328 2.156 1.516 2.562 2.75 1.531 1.219-1.016 1.484-1.172 3.016-1.703 2.328-0.797 1.547-1.5 0.297-1.922-1.125-0.375-1.172-2.266-0.766-2.625 0.094 2.031 1.156 2.328 1.594 2.609z"></path>
</symbol>
<symbol id="icon-github" viewBox="0 0 32 32">
<title>github</title>
<path d="M16 0.396c-8.84 0-16 7.164-16 16 0 7.071 4.584 13.067 10.94 15.18 0.8 0.151 1.093-0.344 1.093-0.769 0-0.38-0.013-1.387-0.020-2.72-4.451 0.965-5.389-2.147-5.389-2.147-0.728-1.847-1.78-2.34-1.78-2.34-1.449-0.992 0.112-0.972 0.112-0.972 1.607 0.112 2.451 1.648 2.451 1.648 1.427 2.447 3.745 1.74 4.66 1.331 0.144-1.035 0.556-1.74 1.013-2.14-3.553-0.4-7.288-1.776-7.288-7.907 0-1.747 0.62-3.173 1.647-4.293-0.18-0.404-0.72-2.031 0.14-4.235 0 0 1.34-0.429 4.4 1.64 1.28-0.356 2.64-0.532 4-0.54 1.36 0.008 2.72 0.184 4 0.54 3.040-2.069 4.38-1.64 4.38-1.64 0.86 2.204 0.32 3.831 0.16 4.235 1.020 1.12 1.64 2.547 1.64 4.293 0 6.147-3.74 7.5-7.3 7.893 0.56 0.48 1.080 1.461 1.080 2.96 0 2.141-0.020 3.861-0.020 4.381 0 0.42 0.28 0.92 1.1 0.76 6.401-2.099 10.981-8.099 10.981-15.159 0-8.836-7.164-16-16-16z"></path>
</symbol>
<symbol id="icon-linux1" viewBox="0 0 32 32">
<title>linux1</title>
<path d="M16.671 0c-0.207 0-0.42 0.011-0.639 0.028-5.636 0.444-4.141 6.409-4.227 8.397-0.103 1.457-0.4 2.605-1.401 4.028-1.18 1.401-2.836 3.667-3.621 6.028-0.371 1.109-0.547 2.245-0.383 3.319-0.052 0.045-0.101 0.091-0.148 0.18-0.347 0.357-0.599 0.801-0.883 1.119-0.265 0.265-0.647 0.356-1.063 0.533-0.417 0.181-0.877 0.359-1.152 0.908-0.12 0.251-0.181 0.524-0.176 0.801 0 0.265 0.036 0.535 0.073 0.715 0.077 0.532 0.155 0.972 0.052 1.293-0.331 0.907-0.372 1.528-0.14 1.98 0.232 0.445 0.713 0.625 1.252 0.801 1.081 0.267 2.547 0.18 3.7 0.799 1.235 0.623 2.488 0.895 3.488 0.627 0.701-0.153 1.293-0.617 1.611-1.26 0.783-0.004 1.64-0.359 3.013-0.445 0.932-0.077 2.099 0.356 3.437 0.265 0.033 0.18 0.084 0.265 0.152 0.445l0.004 0.004c0.521 1.037 1.484 1.509 2.512 1.428 1.028-0.080 2.123-0.715 3.009-1.741 0.841-1.020 2.244-1.445 3.171-2.004 0.464-0.265 0.839-0.625 0.865-1.137 0.031-0.533-0.265-1.083-0.952-1.836v-0.129l-0.004-0.004c-0.227-0.267-0.333-0.713-0.451-1.235-0.113-0.535-0.243-1.048-0.656-1.395h-0.004c-0.079-0.072-0.164-0.089-0.251-0.18-0.075-0.051-0.161-0.083-0.253-0.085 0.575-1.704 0.352-3.4-0.231-4.925-0.711-1.88-1.953-3.517-2.9-4.644-1.061-1.34-2.101-2.609-2.081-4.492 0.036-2.869 0.316-8.177-4.725-8.185zM17.376 4.54h0.017c0.284 0 0.528 0.083 0.779 0.264 0.255 0.18 0.44 0.443 0.585 0.711 0.14 0.345 0.211 0.612 0.221 0.965 0-0.027 0.008-0.053 0.008-0.079v0.139c-0.003-0.009-0.005-0.020-0.005-0.028l-0.005-0.032c-0.003 0.324-0.071 0.644-0.2 0.941-0.063 0.167-0.159 0.32-0.284 0.447-0.039-0.021-0.076-0.040-0.117-0.056-0.14-0.060-0.265-0.085-0.38-0.177-0.095-0.037-0.193-0.068-0.292-0.088 0.065-0.079 0.193-0.177 0.243-0.264 0.071-0.171 0.109-0.352 0.117-0.536v-0.025c0.003-0.18-0.024-0.361-0.081-0.533-0.060-0.18-0.135-0.268-0.244-0.445-0.112-0.088-0.223-0.176-0.356-0.176h-0.021c-0.124 0-0.235 0.040-0.349 0.176-0.127 0.125-0.221 0.276-0.273 0.445-0.071 0.169-0.112 0.352-0.12 0.533v0.025c0.003 0.119 0.011 0.239 0.027 0.356-0.257-0.089-0.584-0.18-0.809-0.269-0.013-0.087-0.021-0.176-0.024-0.265v-0.027c-0.011-0.352 0.057-0.701 0.2-1.025 0.109-0.292 0.309-0.541 0.573-0.711 0.228-0.172 0.505-0.265 0.792-0.265zM13.427 4.619h0.048c0.189 0 0.36 0.064 0.532 0.18 0.195 0.172 0.352 0.384 0.459 0.62 0.12 0.265 0.188 0.535 0.204 0.889v0.005c0.009 0.179 0.008 0.268-0.003 0.355v0.107c-0.040 0.009-0.075 0.024-0.111 0.032-0.203 0.073-0.365 0.18-0.524 0.267 0.016-0.119 0.017-0.239 0.004-0.356v-0.020c-0.016-0.177-0.052-0.265-0.109-0.444-0.041-0.136-0.117-0.257-0.221-0.356-0.065-0.060-0.153-0.091-0.244-0.085h-0.028c-0.095 0.008-0.173 0.055-0.248 0.176-0.085 0.103-0.14 0.228-0.16 0.36-0.036 0.144-0.047 0.292-0.031 0.441v0.019c0.016 0.18 0.049 0.268 0.108 0.445 0.060 0.179 0.129 0.267 0.22 0.357 0.015 0.012 0.028 0.024 0.045 0.032-0.093 0.076-0.156 0.093-0.235 0.181-0.049 0.037-0.107 0.080-0.175 0.091-0.139-0.167-0.261-0.347-0.367-0.536-0.128-0.28-0.195-0.584-0.207-0.889-0.023-0.301 0.015-0.603 0.107-0.891 0.073-0.263 0.203-0.505 0.377-0.713 0.171-0.177 0.347-0.267 0.557-0.267zM15.255 6.893c0.441 0 0.976 0.087 1.62 0.532 0.391 0.267 0.697 0.359 1.404 0.624h0.004c0.34 0.181 0.54 0.355 0.637 0.532v-0.175c0.097 0.196 0.104 0.424 0.021 0.627-0.164 0.415-0.688 0.859-1.419 1.124v0.003c-0.357 0.18-0.668 0.444-1.033 0.62-0.368 0.18-0.784 0.389-1.349 0.356-0.203 0.011-0.407-0.020-0.597-0.089-0.147-0.080-0.291-0.168-0.429-0.264-0.26-0.18-0.484-0.443-0.816-0.62v-0.007h-0.007c-0.533-0.328-0.821-0.683-0.915-0.948-0.092-0.357-0.007-0.625 0.257-0.8 0.299-0.18 0.507-0.361 0.644-0.448 0.139-0.099 0.191-0.136 0.235-0.175h0.003v-0.004c0.225-0.269 0.581-0.625 1.119-0.801 0.185-0.048 0.392-0.087 0.621-0.087zM18.987 9.751c0.479 1.889 1.596 4.633 2.315 5.964 0.381 0.712 1.14 2.212 1.469 4.032 0.208-0.007 0.439 0.024 0.684 0.085 0.861-2.228-0.728-4.623-1.452-5.288-0.295-0.268-0.309-0.447-0.164-0.447 0.785 0.712 1.82 2.096 2.195 3.676 0.172 0.713 0.212 1.472 0.028 2.227 0.089 0.037 0.18 0.081 0.273 0.089 1.376 0.712 1.884 1.251 1.64 2.049v-0.057c-0.081-0.004-0.16 0-0.241 0h-0.020c0.201-0.623-0.243-1.1-1.42-1.632-1.22-0.533-2.195-0.448-2.361 0.62-0.009 0.057-0.016 0.088-0.023 0.18-0.091 0.031-0.185 0.071-0.279 0.085-0.573 0.357-0.883 0.892-1.057 1.583-0.173 0.711-0.227 1.541-0.273 2.492v0.004c-0.028 0.445-0.228 1.117-0.425 1.801-2 1.429-4.773 2.051-7.132 0.445-0.148-0.257-0.328-0.499-0.536-0.711-0.099-0.167-0.224-0.316-0.367-0.445 0.243 0 0.451-0.039 0.62-0.089 0.193-0.089 0.343-0.251 0.419-0.445 0.144-0.356 0-0.929-0.46-1.551-0.46-0.623-1.241-1.327-2.384-2.028-0.84-0.532-1.315-1.16-1.533-1.861-0.22-0.712-0.191-1.447-0.020-2.193 0.327-1.427 1.164-2.813 1.699-3.684 0.143-0.087 0.049 0.18-0.544 1.299-0.528 1.001-1.521 3.329-0.163 5.139 0.051-1.319 0.344-2.62 0.863-3.835 0.752-1.704 2.324-4.672 2.448-7.024 0.064 0.048 0.289 0.18 0.385 0.269 0.291 0.177 0.507 0.444 0.787 0.62 0.281 0.268 0.636 0.447 1.168 0.447 0.052 0.004 0.1 0.008 0.148 0.008 0.548 0 0.972-0.179 1.328-0.357 0.387-0.179 0.695-0.445 0.987-0.533h0.007c0.623-0.18 1.115-0.536 1.393-0.933zM21.901 21.695c0.049 0.801 0.457 1.66 1.176 1.836 0.784 0.179 1.912-0.444 2.388-1.020l0.281-0.012c0.42-0.011 0.769 0.013 1.129 0.356l0.004 0.004c0.277 0.265 0.407 0.708 0.521 1.168 0.113 0.535 0.205 1.040 0.545 1.421 0.648 0.703 0.86 1.208 0.848 1.52l0.004-0.008v0.024l-0.004-0.016c-0.020 0.349-0.247 0.528-0.664 0.793-0.84 0.535-2.328 0.949-3.276 2.093-0.824 0.983-1.828 1.519-2.715 1.588-0.885 0.071-1.649-0.267-2.099-1.197l-0.007-0.004c-0.28-0.535-0.16-1.367 0.075-2.253 0.235-0.891 0.571-1.793 0.617-2.531 0.049-0.952 0.101-1.78 0.26-2.419 0.16-0.62 0.411-1.063 0.855-1.312l0.060-0.029zM7.481 21.76h0.013c0.071 0 0.14 0.007 0.209 0.019 0.501 0.073 0.941 0.444 1.364 1.003l1.213 2.219 0.004 0.004c0.324 0.711 1.005 1.419 1.585 2.184 0.579 0.797 1.027 1.508 0.972 2.093v0.008c-0.076 0.992-0.639 1.531-1.5 1.725-0.86 0.18-2.027 0.003-3.193-0.619-1.291-0.715-2.824-0.625-3.809-0.803-0.492-0.088-0.815-0.268-0.964-0.535-0.148-0.265-0.151-0.801 0.164-1.64v-0.004l0.003-0.004c0.156-0.445 0.040-1.004-0.036-1.492-0.073-0.535-0.111-0.945 0.057-1.253 0.213-0.445 0.528-0.532 0.919-0.711 0.393-0.18 0.855-0.269 1.221-0.625h0.003v-0.004c0.341-0.357 0.593-0.801 0.891-1.117 0.253-0.268 0.507-0.448 0.884-0.448zM17.027 9.661c-0.58 0.268-1.26 0.713-1.984 0.713-0.723 0-1.293-0.356-1.705-0.621-0.207-0.179-0.373-0.357-0.499-0.447-0.219-0.179-0.192-0.445-0.099-0.445 0.145 0.021 0.172 0.18 0.265 0.268 0.128 0.088 0.287 0.265 0.481 0.444 0.388 0.267 0.907 0.623 1.555 0.623 0.647 0 1.404-0.356 1.864-0.621 0.26-0.18 0.593-0.445 0.864-0.623 0.208-0.183 0.199-0.357 0.372-0.357 0.172 0.021 0.045 0.179-0.196 0.444-0.241 0.18-0.615 0.447-0.92 0.624v-0.001zM15.584 7.549v-0.029c-0.008-0.025 0.017-0.056 0.039-0.067 0.099-0.057 0.24-0.036 0.347 0.005 0.084 0 0.213 0.089 0.2 0.18-0.008 0.065-0.113 0.088-0.18 0.088-0.073 0-0.123-0.057-0.188-0.091-0.069-0.024-0.195-0.011-0.217-0.087zM14.849 7.549c-0.027 0.077-0.151 0.065-0.221 0.088-0.063 0.033-0.115 0.091-0.185 0.091-0.068 0-0.175-0.025-0.183-0.091-0.012-0.088 0.117-0.177 0.2-0.177 0.108-0.041 0.245-0.063 0.345-0.007 0.025 0.012 0.048 0.040 0.040 0.067v0.028h0.004z"></path>
</symbol>
<symbol id="icon-mongodb" viewBox="0 0 32 32">
<title>mongodb</title>
<path fill="#47a248" style="fill: var(--color1, #47a248)" d="M22.907 12.691c-1.684-7.413-5.656-9.849-6.083-10.781-0.469-0.657-0.977-1.909-0.977-1.909-0.003 0.025-0.005 0.041-0.007 0.065v0.017h-0.001c-0.003 0.020-0.004 0.033-0.005 0.052v0.020h-0.003c0 0.013-0.003 0.024-0.003 0.035v0.035h-0.004c-0.001 0.011-0.001 0.024-0.004 0.033v0.028h-0.003c0 0.009 0 0.020-0.003 0.028v0.027h-0.003c0 0.013-0.001 0.029-0.003 0.043v0.003c-0.004 0.023-0.008 0.045-0.012 0.067v0.011h-0.003c-0.001 0.005-0.004 0.011-0.004 0.016v0.023h-0.004v0.029h-0.007v0.024h-0.007v0.028h-0.005v0.025h-0.005v0.023h-0.008v0.019h-0.005v0.024h-0.005v0.019h-0.007v0.017h-0.004v0.020h-0.005c-0.001 0.001-0.001 0.004-0.001 0.005v0.013h-0.004c-0.001 0.003-0.001 0.005-0.001 0.008v0.008h-0.003c-0.001 0.004-0.003 0.011-0.003 0.013-0.004 0.009-0.009 0.019-0.013 0.028v0.003c-0.003 0.003-0.005 0.007-0.007 0.009v0.011h-0.005v0.011h-0.007v0.011h-0.004v0.013h-0.008v0.019h-0.005v0.005h-0.005v0.011h-0.005v0.015h-0.005v0.011h-0.008v0.015h-0.005v0.011h-0.007v0.011h-0.004v0.013h-0.007v0.011h-0.005v0.008h-0.005v0.011h-0.008v0.012h-0.005v0.008h-0.007v0.011h-0.005v0.015h-0.007v0.005h-0.004v0.011h-0.008v0.005h-0.005v0.013h-0.005v0.005h-0.005v0.011h-0.007v0.008h-0.004l-0.003 0.005v0.005h-0.003c-0.001 0.003-0.003 0.003-0.003 0.005v0.001h-0.001c-0.001 0.004-0.003 0.007-0.005 0.009v0.004h-0.001c-0.007 0.008-0.011 0.016-0.016 0.024v0.001c-0.003 0.003-0.009 0.008-0.012 0.013v0.003h-0.001c-0.001 0.001-0.004 0.003-0.004 0.004v0.004h-0.003l-0.004 0.004v0.001h-0.001c0 0.001-0.003 0.003-0.004 0.005v0.005h-0.004l-0.003 0.003v0.003h-0.003c0 0.003-0.003 0.003-0.003 0.004v0.004h-0.005c0 0.001-0.001 0.003-0.003 0.004v0.008h-0.004v0.005h-0.005v0.008h-0.005v0.011h-0.007v-0.011h-0.007v0.005h-0.005v0.008h-0.007v0.011h-0.007v0.005h-0.005v0.008h-0.005v0.005h-0.005v0.011h-0.008v0.005h-0.005v0.008h-0.007v0.005h-0.005v0.007h-0.007v0.013h-0.003v0.005h-0.008v0.007h-0.005v0.003h-0.005v0.005h-0.007v0.013h-0.005v0.005h-0.007v0.005h-0.005v0.008h-0.007v0.005h-0.007v0.005h-0.005v0.005h-0.005v0.013h-0.005v0.007h-0.008v0.005h-0.005v0.005h-0.007v0.008h-0.005v0.005h-0.007v0.009h-0.005v0.005h-0.008v0.008h-0.003v0.005h-0.005v0.005h-0.007v0.005h-0.005v0.008h-0.007v0.005h-0.004c-0.001 0.001-0.001 0.003-0.001 0.003v0.003h-0.003l-0.005 0.005s-0.003 0.003-0.005 0.004v0.008h-0.005v0.007h-0.005v0.005h-0.005v0.005h-0.004l-0.004 0.004v0.004h-0.003l-0.003 0.003v0.004h-0.003c-0.007 0.008-0.009 0.013-0.019 0.021-0.003 0.003-0.011 0.009-0.016 0.013-0.016 0.011-0.036 0.028-0.052 0.043-0.011 0.007-0.021 0.016-0.029 0.023v0.001h-0.001c-0.021 0.017-0.041 0.033-0.065 0.052v0.001c-0.032 0.027-0.063 0.052-0.099 0.083v-0.001h-0.003c-0.076 0.063-0.156 0.133-0.248 0.212v0.001h-0.001c-0.225 0.197-0.493 0.451-0.793 0.757l-0.025 0.025c-1.813 1.876-4.671 5.785-4.972 12.103-0.027 0.523-0.021 1.031 0.008 1.525v0.012c0.145 2.489 0.927 4.615 1.904 6.341v0.001c0.389 0.688 0.809 1.313 1.235 1.873v0.001c1.469 1.94 2.969 3.089 3.352 3.368 0.588 1.364 0.533 3.705 0.533 3.705l0.859 0.287s-0.175-2.268 0.071-3.363c0.076-0.343 0.256-0.635 0.465-0.883 0.141-0.1 0.56-0.401 1.063-0.86 0.024-0.025 0.037-0.048 0.059-0.072 2.028-1.891 5.816-6.547 4.517-14.132z"></path>
</symbol>
<symbol id="icon-linkedin" viewBox="0 0 32 32">
<title>linkedin</title>
<path fill="#0077b5" style="fill: var(--color2, #0077b5)" d="M27.263 27.269h-4.739v-7.425c0-1.771-0.036-4.049-2.469-4.049-2.471 0-2.848 1.927-2.848 3.919v7.556h-4.739v-15.269h4.552v2.081h0.061c0.636-1.2 2.183-2.467 4.493-2.467 4.801 0 5.689 3.16 5.689 7.273v8.381zM7.116 9.911c-1.525 0-2.751-1.235-2.751-2.753 0-1.517 1.227-2.751 2.751-2.751 1.52 0 2.752 1.233 2.752 2.751 0 1.519-1.233 2.753-2.752 2.753zM9.492 27.269h-4.752v-15.269h4.752v15.269zM29.633 0h-27.272c-1.305 0-2.361 1.032-2.361 2.305v27.389c0 1.275 1.056 2.305 2.361 2.305h27.268c1.304 0 2.371-1.031 2.371-2.305v-27.389c0-1.273-1.067-2.305-2.371-2.305h0.004z"></path>
</symbol>
<symbol id="icon-instagram" viewBox="0 0 32 32">
<title>instagram</title>
<path fill="#e4405f" style="fill: var(--color3, #e4405f)" d="M16 0c-4.347 0-4.889 0.020-6.596 0.096-1.704 0.080-2.864 0.348-3.884 0.744-1.052 0.408-1.945 0.956-2.835 1.845s-1.439 1.781-1.845 2.835c-0.396 1.020-0.665 2.18-0.744 3.884-0.080 1.707-0.096 2.249-0.096 6.596s0.020 4.889 0.096 6.596c0.080 1.703 0.348 2.864 0.744 3.884 0.408 1.051 0.956 1.945 1.845 2.835 0.889 0.888 1.781 1.439 2.835 1.845 1.021 0.395 2.181 0.665 3.884 0.744 1.707 0.080 2.249 0.096 6.596 0.096s4.889-0.020 6.596-0.096c1.703-0.080 2.864-0.349 3.884-0.744 1.051-0.408 1.945-0.957 2.835-1.845 0.888-0.889 1.439-1.78 1.845-2.835 0.395-1.020 0.665-2.181 0.744-3.884 0.080-1.707 0.096-2.249 0.096-6.596s-0.020-4.889-0.096-6.596c-0.080-1.703-0.349-2.865-0.744-3.884-0.408-1.052-0.957-1.945-1.845-2.835-0.889-0.889-1.78-1.439-2.835-1.845-1.020-0.396-2.181-0.665-3.884-0.744-1.707-0.080-2.249-0.096-6.596-0.096zM16 2.88c4.271 0 4.78 0.021 6.467 0.095 1.56 0.073 2.407 0.332 2.969 0.553 0.749 0.289 1.28 0.636 1.843 1.195 0.559 0.56 0.905 1.092 1.195 1.841 0.219 0.563 0.48 1.409 0.551 2.969 0.076 1.688 0.093 2.195 0.093 6.467s-0.020 4.78-0.099 6.467c-0.081 1.56-0.341 2.407-0.561 2.969-0.299 0.749-0.639 1.28-1.199 1.843-0.559 0.559-1.099 0.905-1.84 1.195-0.56 0.219-1.42 0.48-2.98 0.551-1.699 0.076-2.199 0.093-6.479 0.093-4.281 0-4.781-0.020-6.479-0.099-1.561-0.081-2.421-0.341-2.981-0.561-0.759-0.299-1.28-0.639-1.839-1.199-0.561-0.559-0.92-1.099-1.2-1.84-0.22-0.56-0.479-1.42-0.56-2.98-0.060-1.68-0.081-2.199-0.081-6.459 0-4.261 0.021-4.781 0.081-6.481 0.081-1.56 0.34-2.419 0.56-2.979 0.28-0.76 0.639-1.28 1.2-1.841 0.559-0.559 1.080-0.919 1.839-1.197 0.56-0.221 1.401-0.481 2.961-0.561 1.7-0.060 2.2-0.080 6.479-0.080l0.060 0.040zM16 7.784c-4.54 0-8.216 3.68-8.216 8.216 0 4.54 3.68 8.216 8.216 8.216 4.54 0 8.216-3.68 8.216-8.216 0-4.54-3.68-8.216-8.216-8.216zM16 21.333c-2.947 0-5.333-2.387-5.333-5.333s2.387-5.333 5.333-5.333 5.333 2.387 5.333 5.333-2.387 5.333-5.333 5.333zM26.461 7.46c0 1.060-0.861 1.92-1.92 1.92-1.060 0-1.92-0.861-1.92-1.92s0.861-1.919 1.92-1.919c1.057-0.001 1.92 0.86 1.92 1.919z"></path>
</symbol>
<symbol id="icon-facebook" viewBox="0 0 32 32">
<title>facebook</title>
<path fill="#3b5998" style="fill: var(--color4, #3b5998)" d="M30.235 0h-28.469c-0.975 0-1.765 0.791-1.765 1.765v28.469c0 0.976 0.791 1.765 1.765 1.765h15.325v-12.392h-4.172v-4.828h4.172v-3.567c0-4.132 2.525-6.38 6.212-6.38 1.767 0 3.285 0.129 3.728 0.188v4.32h-2.561c-2 0-2.389 0.961-2.389 2.361v3.081h4.779l-0.62 4.84h-4.159v12.376h8.153c0.977 0 1.767-0.789 1.767-1.765v-28.469c0-0.975-0.789-1.765-1.765-1.765z"></path>
</symbol>
<symbol id="icon-graphql" viewBox="0 0 32 32">
<title>graphql</title>
<path fill="#e10098" style="fill: var(--color5, #e10098)" d="M18.735 3.668l6.58 3.8c1.088-1.145 2.897-1.191 4.043-0.103 0.197 0.187 0.365 0.401 0.503 0.636 0.785 1.371 0.309 3.119-1.061 3.904-0.232 0.133-0.481 0.233-0.744 0.297v7.599c1.528 0.364 2.472 1.897 2.107 3.425-0.064 0.272-0.169 0.533-0.309 0.775-0.789 1.364-2.535 1.832-3.903 1.043-0.261-0.151-0.5-0.345-0.701-0.572l-6.54 3.776c0.496 1.499-0.317 3.113-1.815 3.608-0.289 0.095-0.589 0.144-0.893 0.144-1.575 0.001-2.852-1.273-2.853-2.848 0-0.273 0.039-0.547 0.117-0.812l-6.581-3.796c-1.088 1.139-2.895 1.183-4.035 0.093-1.139-1.088-1.181-2.895-0.093-4.035 0.377-0.396 0.861-0.675 1.392-0.804l0.001-7.599c-1.533-0.368-2.477-1.911-2.108-3.445 0.063-0.264 0.164-0.519 0.299-0.755 0.789-1.365 2.536-1.832 3.903-1.043 0.236 0.135 0.452 0.304 0.64 0.503l6.584-3.8c-0.448-1.511 0.415-3.096 1.921-3.543 0.263-0.079 0.539-0.117 0.813-0.117 1.575-0.001 2.852 1.272 2.853 2.845 0.001 0.279-0.040 0.557-0.119 0.823zM18.048 4.837c-0.025 0.028-0.049 0.052-0.077 0.077l8.615 14.92c0.035-0.012 0.075-0.021 0.109-0.031v-7.609c-1.527-0.377-2.456-1.923-2.077-3.451 0.008-0.032 0.016-0.065 0.025-0.096l-6.595-3.811zM14.028 4.916l-0.080-0.080-6.595 3.803c0.436 1.513-0.436 3.091-1.948 3.527-0.035 0.011-0.068 0.019-0.101 0.028v7.611l0.112 0.031 8.612-14.919zM16.796 5.592c-0.52 0.149-1.071 0.149-1.589 0l-8.613 14.919c0.392 0.377 0.669 0.86 0.8 1.388h17.215c0.129-0.531 0.409-1.015 0.804-1.392l-8.616-14.915zM18.111 27.228l6.551-3.784c-0.020-0.063-0.036-0.125-0.051-0.189h-17.221l-0.028 0.111 6.585 3.803c0.517-0.539 1.245-0.871 2.053-0.871 0.836 0 1.587 0.359 2.111 0.931z"></path>
</symbol>
<symbol id="icon-node-dot-js" viewBox="0 0 32 32">
<title>node-dot-js</title>
<path fill="#393" style="fill: var(--color6, #393)" d="M15.247 0.204l-12.493 7.24c-0.467 0.271-0.752 0.771-0.751 1.311v14.485c0 0.539 0.287 1.040 0.752 1.309l12.493 7.247c0.467 0.271 1.040 0.271 1.507 0l12.488-7.244c0.467-0.273 0.752-0.771 0.753-1.309v-14.488c0-0.539-0.288-1.040-0.755-1.312l-12.485-7.24c-0.467-0.271-1.043-0.271-1.507 0z"></path>
</symbol>
<symbol id="icon-react" viewBox="0 0 32 32">
<title>react</title>
<path fill="#61dafb" style="fill: var(--color7, #61dafb)" d="M18.852 16c0 1.575-1.277 2.852-2.852 2.852s-2.852-1.277-2.852-2.852c0-1.575 1.277-2.852 2.852-2.852s2.852 1.277 2.852 2.852z"></path>
<path fill="#61dafb" style="fill: var(--color7, #61dafb)" d="M8.011 21.673l-0.629-0.16c-4.691-1.185-7.381-3.197-7.381-5.519s2.691-4.333 7.381-5.519l0.629-0.159 0.177 0.624c0.545 1.86 1.163 3.443 1.899 4.957l-0.082-0.186 0.135 0.284-0.135 0.284c-0.656 1.329-1.275 2.912-1.761 4.551l-0.056 0.22-0.177 0.623zM7.089 11.933c-3.565 1.001-5.753 2.533-5.753 4.061 0 1.527 2.188 3.059 5.753 4.061 0.512-1.62 1.046-2.965 1.662-4.263l-0.086 0.202c-0.531-1.098-1.066-2.443-1.511-3.828l-0.065-0.234zM23.989 21.673l-0.177-0.625c-0.544-1.859-1.162-3.441-1.9-4.954l0.081 0.184-0.135-0.284 0.135-0.284c0.656-1.329 1.275-2.911 1.762-4.55l0.056-0.221 0.177-0.624 0.631 0.159c4.689 1.185 7.38 3.197 7.38 5.52s-2.691 4.333-7.38 5.519l-0.631 0.16zM23.335 15.995c0.64 1.385 1.169 2.747 1.576 4.061 3.567-1.003 5.753-2.535 5.753-4.061 0-1.528-2.188-3.059-5.753-4.061-0.511 1.619-1.045 2.963-1.662 4.262l0.086-0.2z"></path>
<path fill="#61dafb" style="fill: var(--color7, #61dafb)" d="M7.080 11.927l-0.177-0.623c-1.319-4.648-0.919-7.979 1.097-9.141 1.977-1.141 5.152 0.207 8.479 3.621l0.453 0.465-0.453 0.465c-1.146 1.19-2.207 2.482-3.162 3.853l-0.068 0.103-0.18 0.257-0.313 0.027c-1.875 0.151-3.596 0.439-5.264 0.86l0.218-0.047-0.629 0.159zM9.608 3.087c-0.357 0-0.673 0.077-0.94 0.231-1.325 0.764-1.56 3.42-0.647 7.004 1.21-0.285 2.681-0.521 4.18-0.658l0.131-0.010c0.894-1.264 1.792-2.37 2.756-3.414l-0.020 0.022c-2.080-2.025-4.049-3.175-5.46-3.175zM22.393 30.236c-0.001 0-0.001 0 0 0-1.9 0-4.34-1.431-6.872-4.031l-0.453-0.465 0.453-0.465c1.146-1.19 2.206-2.482 3.16-3.854l0.068-0.103 0.18-0.257 0.312-0.027c1.875-0.15 3.597-0.438 5.267-0.858l-0.218 0.046 0.629-0.159 0.179 0.624c1.316 4.645 0.917 7.977-1.099 9.139-0.449 0.259-0.988 0.411-1.562 0.411-0.016 0-0.031-0-0.047-0l0.002 0zM16.932 25.728c2.080 2.025 4.049 3.175 5.46 3.175h0.001c0.356 0 0.673-0.077 0.939-0.231 1.325-0.764 1.561-3.421 0.647-7.005-1.212 0.286-2.682 0.522-4.182 0.658l-0.13 0.010c-0.893 1.265-1.791 2.371-2.755 3.416l0.020-0.022z"></path>
<path fill="#61dafb" style="fill: var(--color7, #61dafb)" d="M24.92 11.927l-0.629-0.159c-1.453-0.376-3.175-0.664-4.939-0.806l-0.111-0.007-0.312-0.027-0.18-0.257c-1.021-1.474-2.082-2.766-3.237-3.966l0.009 0.010-0.453-0.465 0.453-0.465c3.325-3.413 6.499-4.761 8.479-3.621 2.016 1.163 2.416 4.493 1.099 9.14l-0.179 0.624zM19.667 9.653c1.523 0.139 2.969 0.364 4.312 0.668 0.915-3.584 0.679-6.24-0.647-7.004-1.317-0.761-3.793 0.405-6.4 2.944 0.943 1.022 1.841 2.128 2.666 3.289l0.069 0.103zM9.608 30.236c-0.014 0-0.030 0-0.046 0-0.574 0-1.113-0.152-1.577-0.419l0.015 0.008c-2.016-1.161-2.416-4.492-1.097-9.139l0.176-0.624 0.629 0.159c1.54 0.388 3.239 0.661 5.047 0.812l0.313 0.027 0.179 0.257c1.022 1.475 2.083 2.767 3.239 3.967l-0.010-0.010 0.453 0.465-0.453 0.465c-2.531 2.6-4.971 4.031-6.868 4.031zM8.021 21.667c-0.915 3.584-0.679 6.241 0.647 7.005 1.316 0.751 3.791-0.407 6.4-2.944-0.943-1.022-1.841-2.129-2.667-3.29l-0.069-0.103c-1.629-0.146-3.099-0.382-4.534-0.711l0.224 0.043z"></path>
<path fill="#61dafb" style="fill: var(--color7, #61dafb)" d="M16 22.504c-1.097 0-2.225-0.048-3.355-0.141l-0.313-0.027-0.18-0.257c-0.544-0.768-1.139-1.691-1.697-2.639l-0.103-0.19c-0.452-0.758-0.971-1.732-1.45-2.728l-0.105-0.243-0.133-0.284 0.133-0.284c0.584-1.239 1.102-2.212 1.658-3.161l-0.103 0.191c0.552-0.955 1.159-1.907 1.8-2.829l0.18-0.257 0.313-0.027c1.005-0.090 2.174-0.142 3.355-0.142s2.35 0.052 3.505 0.153l-0.15-0.011 0.312 0.027 0.179 0.257c1.177 1.666 2.294 3.567 3.252 5.56l0.104 0.24 0.135 0.284-0.135 0.284c-1.058 2.232-2.176 4.133-3.439 5.925l0.083-0.125-0.179 0.257-0.312 0.027c-1.129 0.093-2.259 0.141-3.356 0.141zM13.071 21.059c1.973 0.148 3.885 0.148 5.86 0 1.004-1.445 1.978-3.104 2.827-4.836l0.101-0.228c-0.947-1.958-1.922-3.617-3.012-5.19l0.083 0.126c-0.877-0.071-1.898-0.111-2.929-0.111s-2.052 0.040-3.063 0.119l0.134-0.008c-1.008 1.447-1.983 3.106-2.83 4.84l-0.099 0.224c0.951 1.96 1.926 3.619 3.014 5.193l-0.085-0.13z"></path>
</symbol>
<symbol id="icon-git" viewBox="0 0 32 32">
<title>git</title>
<path fill="#f05032" style="fill: var(--color8, #f05032)" d="M31.395 14.573l-13.972-13.971c-0.805-0.804-2.109-0.804-2.917 0l-2.895 2.9 3.68 3.68c0.86-0.287 1.839-0.093 2.519 0.588 0.688 0.687 0.877 1.677 0.584 2.533l3.544 3.547c0.86-0.297 1.849-0.104 2.533 0.58 0.961 0.96 0.961 2.512 0 3.472-0.959 0.959-2.508 0.959-3.467 0-0.719-0.721-0.899-1.783-0.539-2.661l-3.319-3.301v8.7c0.235 0.115 0.456 0.271 0.651 0.464 0.951 0.961 0.951 2.511 0 3.467-0.959 0.961-2.519 0.961-3.479 0-0.959-0.959-0.959-2.505 0-3.464 0.243-0.24 0.516-0.421 0.807-0.541v-8.785c-0.289-0.121-0.565-0.296-0.8-0.535-0.727-0.727-0.901-1.789-0.528-2.679l-3.616-3.633-9.581 9.575c-0.8 0.807-0.8 2.112 0 2.919l13.973 13.969c0.805 0.805 2.109 0.805 2.915 0l13.907-13.907c0.807-0.804 0.807-2.109 0-2.916z"></path>
</symbol>
<symbol id="icon-npm" viewBox="0 0 32 32">
<title>npm</title>
<path fill="#cb3837" style="fill: var(--color9, #cb3837)" d="M0 9.779v10.667h8.888v1.776h7.112v-1.776h16v-10.667h-32zM8.888 18.664h-1.776v-5.333h-1.78v5.333h-3.552v-7.108h7.108v7.108zM14.221 18.664v1.781h-3.553v-8.889h7.112v7.109l-3.559-0.001zM30.223 18.664h-1.773v-5.333h-1.781v5.333h-1.78v-5.333h-1.773v5.333h-3.561v-7.108h10.669v7.108z"></path>
<path fill="#cb3837" style="fill: var(--color9, #cb3837)" d="M14.22 13.333h1.78v3.556h-1.78v-3.556z"></path>
</symbol>
<symbol id="icon-webpack" viewBox="0 0 32 32">
<title>webpack</title>
<path fill="#8dd6f9" style="fill: var(--color10, #8dd6f9)" d="M28.021 24.16l-11.553 6.506v-5.068l7.198-3.942 4.355 2.503zM28.811 23.448v-13.607l-4.228 2.429v8.746l4.228 2.432zM3.901 24.16l11.553 6.506v-5.068l-7.198-3.942-4.355 2.503zM3.111 23.448v-13.607l4.228 2.429v8.746l-4.228 2.432zM3.605 8.96l11.849-6.674v4.9l-7.649 4.19-4.2-2.415zM28.317 8.96l-11.849-6.674v4.9l7.649 4.19 4.2-2.415zM15.454 24.446l-7.102-3.887v-7.703l7.101 4.083v7.508zM16.468 24.446l7.101-3.887v-7.703l-7.101 4.083v7.508zM8.833 11.965l7.129-3.904 7.129 3.904-7.129 4.099-7.129-4.099z"></path>
</symbol>
<symbol id="icon-sass" viewBox="0 0 32 32">
<title>sass</title>
<path fill="#c69" style="fill: var(--color11, #c69)" d="M16 0c8.836 0 16 7.164 16 16s-7.164 16-16 16-16-7.164-16-16 7.164-16 16-16zM12.82 21.331c0.233 0.86 0.208 1.664-0.032 2.389l-0.087 0.24c-0.032 0.081-0.069 0.16-0.104 0.235-0.187 0.387-0.435 0.747-0.74 1.080-0.931 1.012-2.229 1.396-2.787 1.073-0.6-0.349-0.301-1.78 0.779-2.92 1.161-1.224 2.827-2.012 2.827-2.012v-0.004l0.144-0.081zM26.035 6.849c-0.723-2.844-5.436-3.779-9.896-2.193-2.652 0.943-5.525 2.424-7.591 4.356-2.457 2.295-2.848 4.295-2.687 5.131 0.569 2.948 4.609 4.876 6.271 6.307v0.008c-0.489 0.24-4.075 2.039-4.915 3.9-0.9 1.96 0.14 3.361 0.82 3.54 2.1 0.581 4.26-0.48 5.42-2.199 1.12-1.681 1.021-3.841 0.539-4.901 0.661-0.18 1.44-0.26 2.44-0.139 2.801 0.32 3.361 2.080 3.24 2.8-0.12 0.719-0.697 1.139-0.899 1.259-0.2 0.121-0.26 0.16-0.241 0.241 0.020 0.12 0.121 0.12 0.28 0.1 0.22-0.040 1.461-0.6 1.521-1.961 0.060-1.72-1.581-3.639-4.5-3.6-1.2 0.021-1.961 0.121-2.5 0.341-0.040-0.060-0.081-0.1-0.14-0.14-1.8-1.94-5.14-3.3-5-5.88 0.040-0.94 0.38-3.419 6.4-6.419 4.94-2.461 8.881-1.78 9.561-0.28 0.977 2.139-2.101 6.12-7.241 6.699-1.96 0.22-2.98-0.539-3.241-0.82-0.279-0.3-0.319-0.32-0.419-0.259-0.16 0.080-0.060 0.34 0 0.5 0.16 0.4 0.78 1.1 1.861 1.46 0.939 0.3 3.24 0.479 6-0.6 3.099-1.199 5.519-4.54 4.819-7.34l0.097 0.089z"></path>
</symbol>
<symbol id="icon-javascript" viewBox="0 0 32 32">
<title>javascript</title>
<path fill="#f7df1e" style="fill: var(--color12, #f7df1e)" d="M0 0h32v32h-32v-32zM29.379 24.368c-0.233-1.46-1.184-2.687-4.004-3.831-0.981-0.46-2.072-0.78-2.396-1.52-0.121-0.44-0.14-0.68-0.061-0.94 0.2-0.861 1.22-1.12 2.020-0.88 0.52 0.16 1 0.56 1.301 1.2 1.379-0.901 1.379-0.901 2.34-1.5-0.36-0.56-0.539-0.801-0.781-1.040-0.84-0.94-1.959-1.42-3.779-1.379l-0.94 0.119c-0.901 0.22-1.76 0.7-2.28 1.34-1.52 1.721-1.081 4.721 0.759 5.961 1.82 1.36 4.481 1.659 4.821 2.94 0.32 1.56-1.16 2.060-2.621 1.88-1.081-0.24-1.68-0.781-2.34-1.781l-2.44 1.401c0.28 0.64 0.6 0.919 1.080 1.479 2.32 2.341 8.12 2.221 9.161-1.339 0.039-0.12 0.32-0.94 0.099-2.2l0.061 0.089zM17.401 14.708h-2.997c0 2.584-0.012 5.152-0.012 7.74 0 1.643 0.084 3.151-0.184 3.615-0.44 0.919-1.573 0.801-2.088 0.64-0.528-0.261-0.796-0.621-1.107-1.14-0.084-0.14-0.147-0.261-0.169-0.261l-2.433 1.5c0.407 0.84 1 1.563 1.765 2.023 1.14 0.68 2.672 0.9 4.276 0.54 1.044-0.301 1.944-0.921 2.415-1.881 0.68-1.24 0.536-2.76 0.529-4.461 0.016-2.739 0-5.479 0-8.239l0.005-0.075z"></path>
</symbol>
<symbol id="icon-css3" viewBox="0 0 32 32">
<title>css3</title>
<path fill="#1572b6" style="fill: var(--color13, #1572b6)" d="M2 0h28l-2.547 28.751-11.484 3.249-11.42-3.251-2.549-28.749zM24.787 5.884l-17.573-0.004 0.284 3.496 13.5 0.003-0.34 3.621h-8.853l0.32 3.431h8.243l-0.488 4.697-3.88 1.072-3.941-1.080-0.251-2.813h-3.48l0.387 5.14 7.287 2.271 7.164-2.040 1.623-17.792z"></path>
</symbol>
<symbol id="icon-html5" viewBox="0 0 32 32">
<title>html5</title>
<path fill="#e34f26" style="fill: var(--color14, #e34f26)" d="M2 0h28l-2.547 28.751-11.484 3.249-11.419-3.251-2.551-28.749zM11.375 13l-0.309-3.624 13.412 0.004 0.307-3.496-17.568-0.004 0.931 10.68h12.168l-0.435 4.568-3.88 1.072-3.94-1.080-0.251-2.813h-3.479l0.44 5.561 7.229 1.933 7.172-1.924 0.992-10.876h-12.789z"></path>
</symbol>
<symbol id="icon-tools" viewBox="0 0 31 32">
<title>tools</title>
<path d="M0.211 5.646c-0.847 0.848-0.666 2.042 0.008 2.715 0.027 0.026 2.734 2.612 6.541 6.419 0.098 0.098 0.226 0.146 0.354 0.146s0.256-0.049 0.354-0.146c0.195-0.195 0.195-0.512 0-0.707-0.574-0.574-1.12-1.117-1.638-1.631l1.589-1.589c0.195-0.195 0.195-0.512 0-0.707s-0.512-0.195-0.707 0l-1.593 1.593c-0.891-0.88-1.676-1.648-2.315-2.271l3.615-3.615c0.195-0.195 0.195-0.512 0-0.707s-0.512-0.195-0.707 0l-3.626 3.626c-0.736-0.713-1.16-1.118-1.167-1.125-0.211-0.211-0.488-0.805 0-1.293l5-5c0.193-0.196 0.707-0.585 1.271-0.024 0.025 0.028 2.55 2.896 6.404 6.75 0.195 0.195 0.512 0.195 0.707 0s0.195-0.512 0-0.707c-3.83-3.829-6.336-6.675-6.382-6.727-0.932-0.93-2.056-0.651-2.707 0l-5.001 5zM21.419 24.146c-0.195-0.195-0.512-0.195-0.707 0l-1.591 1.59c-0.485-0.491-0.994-1.005-1.53-1.541-0.195-0.195-0.512-0.195-0.707 0s-0.195 0.512 0 0.707c3.704 3.703 6.291 6.469 6.328 6.509 0.343 0.344 0.813 0.533 1.323 0.533v0c0.525 0 1.056-0.205 1.385-0.535l4.998-5.057c0.629-0.629 0.665-1.696 0.078-2.285l-6.706-6.705c-0.195-0.195-0.512-0.195-0.707 0s-0.195 0.512 0 0.707l6.706 6.705c0.2 0.2 0.162 0.632-0.079 0.873l-4.999 5.057c-0.115 0.116-0.376 0.24-0.676 0.24 0 0 0 0 0 0-0.172 0-0.418-0.042-0.604-0.229-0.010-0.011-0.429-0.458-1.156-1.219l3.644-3.644c0.195-0.195 0.195-0.512 0-0.707s-0.512-0.195-0.707 0l-3.629 3.629c-0.624-0.649-1.389-1.438-2.26-2.326l1.596-1.596c0.195-0.194 0.195-0.51 0-0.706zM-0.293 31.829c0.096 0.098 0.225 0.15 0.358 0.15 0.048 0 0.096-0.007 0.143-0.021l10-2.979c0.081-0.024 0.153-0.067 0.212-0.127l17.090-17.205c0.024-0.024 0.036-0.055 0.054-0.082l3.656-3.656c0.294-0.295 0.457-0.686 0.457-1.103s-0.163-0.807-0.457-1.1l-5.235-5.234c-0.588-0.588-1.615-0.588-2.203 0l-3.739 3.739c-0.024 0.024-0.037 0.055-0.055 0.083l-17.116 17.117c-0.056 0.056-0.098 0.124-0.122 0.199l-3.16 9.715c-0.058 0.177-0.013 0.37 0.117 0.504zM20.425 5.271l1.039 1.039-15.523 15.565-1.727-0.392 16.211-16.212zM6.565 22.666l15.607-15.648 2.436 2.436-15.748 15.546h-2.295v-2.334zM26.449 11.296l-16.244 16.354-0.577-2.002 15.687-15.487 1.134 1.135zM3.558 22.359l2.007 0.456v2.685c0 0.276 0.224 0.5 0.5 0.5h2.624l0.634 2.2-8.488 2.529 2.723-8.37zM24.49 1.179c0.211-0.211 0.578-0.211 0.789 0l5.235 5.235c0.105 0.105 0.163 0.245 0.163 0.394 0 0.148-0.058 0.289-0.164 0.395l-3.371 3.372-6.023-6.023 3.371-3.373z"></path>
</symbol>
<symbol id="icon-mobile" viewBox="0 0 32 32">
<title>mobile</title>
<path d="M1.5 32h14c0.276 0 0.5-0.224 0.5-0.5s-0.224-0.5-0.5-0.5h-14c-0.276 0-0.5-0.224-0.5-0.5v-29c0-0.276 0.224-0.5 0.5-0.5h21c0.276 0 0.5 0.224 0.5 0.5v5c0 0.276 0.224 0.5 0.5 0.5s0.5-0.224 0.5-0.5v-5c0-0.827-0.673-1.5-1.5-1.5h-21c-0.827 0-1.5 0.673-1.5 1.5v29c0 0.827 0.673 1.5 1.5 1.5zM18 10.5v20c0 0.827 0.673 1.5 1.5 1.5h11c0.827 0 1.5-0.673 1.5-1.5v-20c0-0.827-0.673-1.5-1.5-1.5h-11c-0.827 0-1.5 0.673-1.5 1.5zM31 10.5v20c0 0.276-0.224 0.5-0.5 0.5h-11c-0.276 0-0.5-0.224-0.5-0.5v-20c0-0.276 0.224-0.5 0.5-0.5h11c0.276 0 0.5 0.224 0.5 0.5zM11 28c0 0.552 0.448 1 1 1s1-0.448 1-1c0-0.552-0.448-1-1-1s-1 0.448-1 1zM24 28c0 0.552 0.448 1 1 1s1-0.448 1-1c0-0.552-0.448-1-1-1s-1 0.448-1 1z"></path>
</symbol>
<symbol id="icon-terminal1" viewBox="0 0 32 32">
<title>terminal1</title>
<path d="M0 2v28h32v-28h-32zM30 28h-28v-24h28v24zM28 6h-24v20h24v-20zM14 16h-2v2h-2v2h-2v-2h2v-2h2v-2h-2v-2h-2v-2h2v2h2v2h2v2zM22 20h-6v-2h6v2z"></path>
</symbol>
</defs>
</svg>
